<svg xmlns="http://www.w3.org/2000/svg" xmlns:xlink="http://www.w3.org/1999/xlink" viewBox="0 0 29 24"><path d="M 22.065 15.157 C 20.755 15.157 19.527 14.605 18.411 13.705 L 18.683 12.435 L 18.695 12.388 C 18.937 11.036 19.704 8.766 22.065 8.766 C 23.836 8.766 25.276 10.201 25.276 11.965 C 25.27 13.723 23.83 15.157 22.065 15.157 Z M 22.065 5.527 C 19.049 5.527 16.711 7.479 15.761 10.689 C 14.309 8.519 13.211 5.915 12.567 3.722 L 9.321 3.722 L 9.321 12.135 C 9.321 13.793 7.963 15.145 6.298 15.145 C 4.634 15.145 3.276 13.793 3.276 12.135 L 3.276 3.722 L 0.029 3.722 L 0.029 12.135 C 0.017 15.581 2.833 18.409 6.292 18.409 C 9.752 18.409 12.567 15.581 12.567 12.135 L 12.567 10.724 C 13.199 12.035 13.972 13.358 14.911 14.534 L 12.921 23.847 L 16.245 23.847 L 17.685 17.092 C 18.948 17.897 20.4 18.403 22.065 18.403 C 25.624 18.403 28.523 15.498 28.523 11.953 C 28.523 8.413 25.624 5.527 22.065 5.527 Z" fill="rgb(255, 255, 255)"></path></svg>